<?xml version="1.0" encoding="UTF-8"?>
<svg width="47px" height="47px" viewBox="0 0 47 47" version="1.1" xmlns="http://www.w3.org/2000/svg" xmlns:xlink="http://www.w3.org/1999/xlink">
    <!-- Generator: sketchtool 52.4 (67378) - http://www.bohemiancoding.com/sketch -->
    <title>51A35C21-4843-485E-AE5D-0A00C1FF600F</title>
    <desc>Created with sketchtool.</desc>
    <g id="Page-1" stroke="none" stroke-width="1" fill="none" fill-rule="evenodd">
        <g id="revista_virtual_02-copy" transform="translate(-1327.000000, -296.000000)">
            <g id="Group-12-Copy" transform="translate(1350.500000, 319.500000) scale(-1, 1) translate(-1350.500000, -319.500000) translate(1327.000000, 296.000000)">
                <circle id="Oval" fill="#DA272C" cx="23.25" cy="23.25" r="23.25"></circle>
                <path d="M16.7313142,22.6408733 L28.1495332,11.2226544 C28.4304882,10.9416994 28.4304882,10.4915223 28.1495332,10.2105672 C27.8688431,9.92981092 27.418401,9.92981092 27.1377109,10.2105672 L15.2105673,22.1377108 C14.9298109,22.4184009 14.9298109,22.868843 15.2105673,23.1495331 L27.1377109,35.0712457 C27.2753405,35.2091402 27.4608556,35.283121 27.6408734,35.283121 C27.8209575,35.283121 28.0064726,35.2143062 28.1443671,35.0712457 C28.4250572,34.7905556 28.4250572,34.3401135 28.1443671,34.0594234 L16.7313142,22.6408733 Z" id="Fill-1" stroke="#FFFFFF" stroke-width="2" fill="#FFFFFF"></path>
            </g>
        </g>
    </g>
</svg>