<?xml version="1.0" encoding="UTF-8"?>
<svg width="82px" height="83px" viewBox="0 0 82 83" version="1.1" xmlns="http://www.w3.org/2000/svg" xmlns:xlink="http://www.w3.org/1999/xlink">
    <!-- Generator: sketchtool 52.4 (67378) - http://www.bohemiancoding.com/sketch -->
    <title>B0B14155-EA53-4CB1-8E98-FE7896740861</title>
    <desc>Created with sketchtool.</desc>
    <defs>
        <path d="M58.7219419,0.549870185 L13.6046272,0.952952991 C6.28389784,1.01819183 0.349493762,7.00618495 0.349493762,14.3269143 L0.349493762,61.0565602 C0.349493762,68.3749596 6.28389784,74.2557746 13.6046272,74.1951957 L60.3342731,73.7758032 C67.6573324,73.7128943 73.5917365,67.7249012 73.5917365,60.4018419 L73.5917365,15.2891871 C73.5917365,7.12268287 67.007274,0.549870185 58.8570795,0.549870185 C58.8128102,0.549870185 58.7662111,0.549870185 58.7219419,0.549870185" id="path-1"></path>
        <filter x="-10.9%" y="-6.8%" width="121.8%" height="121.7%" filterUnits="objectBoundingBox" id="filter-2">
            <feMorphology radius="0.5" operator="dilate" in="SourceAlpha" result="shadowSpreadOuter1"></feMorphology>
            <feOffset dx="0" dy="3" in="shadowSpreadOuter1" result="shadowOffsetOuter1"></feOffset>
            <feGaussianBlur stdDeviation="2" in="shadowOffsetOuter1" result="shadowBlurOuter1"></feGaussianBlur>
            <feComposite in="shadowBlurOuter1" in2="SourceAlpha" operator="out" result="shadowBlurOuter1"></feComposite>
            <feColorMatrix values="0 0 0 0 0   0 0 0 0 0   0 0 0 0 0  0 0 0 0.11 0" type="matrix" in="shadowBlurOuter1"></feColorMatrix>
        </filter>
    </defs>
    <g id="Page-3-2019" stroke="none" stroke-width="1" fill="none" fill-rule="evenodd">
        <g id="revista_virtual_home02" transform="translate(-740.000000, -114.000000)">
            <g id="Group-8" transform="translate(402.000000, 114.000000)">
                <g id="Group-5">
                    <g id="Group-14" transform="translate(342.000000, 0.000000)">
                        <g id="Group-20-Copy">
                            <g id="Group-6" transform="translate(0.476582, 0.767933)">
                                <g id="Fill-4">
                                    <use fill="black" fill-opacity="1" filter="url(#filter-2)" xlink:href="#path-1"></use>
                                    <use stroke="#DEDEDE" stroke-width="1" fill="#FFFFFF" fill-rule="evenodd" xlink:href="#path-1"></use>
                                </g>
                            </g>
                            <g id="Group-19" transform="translate(15.786291, 10.417725)">
                                <path d="M21.5337231,11.133135 C23.4108648,11.114654 25.2880065,11.0882526 27.1651482,11.0882526 C27.6113324,11.0882526 27.8014227,10.9430447 27.788222,10.4783795 C27.7618205,9.63881403 27.7855818,8.79396825 27.7776614,7.95176262 C27.7723811,7.07787527 27.5242077,6.24887035 27.1545876,5.47530843 C25.8345161,2.68995751 22.7006663,1.35668527 19.6961835,2.25961419 C17.5022246,2.91700982 15.6409238,5.08192712 15.3584285,7.31548814 C15.2237812,8.38738622 15.313546,9.45400402 15.2528228,10.5206218 C15.221141,11.0724117 15.4429131,11.2017787 15.9551008,11.1912181 C17.8137615,11.151616 19.6750624,11.1489759 21.5337231,11.133135 Z M21.4782801,48.9505441 C27.5347682,48.8977412 33.5886163,48.8449384 39.6424643,48.7894954 C40.7090821,48.7789348 41.2133494,48.2245048 41.0364598,47.2370913 C40.7592448,45.6688463 40.4556283,44.1058816 40.1625725,42.5429169 C39.7348693,40.275034 39.2939654,38.0097913 38.8741827,35.7392683 C38.4570401,33.4898664 38.068939,31.2325441 37.6491563,28.9831422 C37.2293735,26.72846 36.7752689,24.4843384 36.3554862,22.2322964 C35.8406583,19.4654265 35.3469515,16.6932763 34.8400441,13.9290465 C34.7317982,13.3402946 34.3621782,12.9680344 33.7655058,12.960114 C32.5563203,12.941633 31.3444947,12.9680344 30.132669,12.9759549 C29.9267378,12.978595 29.7155264,13.0287577 29.7234468,13.2795713 C29.7419278,14.0293719 29.578239,14.787093 29.8396131,15.5210528 C30.0455443,16.1071645 29.9135371,16.5850304 29.4752734,16.9440899 C29.0581308,17.2873085 28.6225072,17.3216303 28.1604821,17.0549759 C27.6852564,16.7856813 27.4291625,16.2840541 27.6166127,15.7085029 C27.8304643,15.045827 27.7644607,14.3884314 27.7776614,13.7257555 C27.788222,12.997076 27.7776614,12.9944359 27.0463418,13.0023563 C23.3791831,13.034038 19.7120244,13.0657197 16.0422255,13.1000416 C15.9022979,13.1000416 15.7623704,13.1053219 15.6224428,13.1132423 C15.4191518,13.1238029 15.2686636,13.218848 15.276584,13.4300595 C15.3056256,14.2115418 15.1181755,15.008865 15.4349926,15.7718663 C15.6462041,16.2761337 15.4297123,16.7011967 15.0653726,17.0444153 C14.6719913,17.4166755 14.1650838,17.4615579 13.7083391,17.1843429 C13.2753556,16.9203286 12.950618,16.5111064 13.1037463,16.0121194 C13.3307986,15.2596786 13.2225527,14.5125181 13.2727155,13.7653576 C13.3043972,13.292772 13.1380682,13.1026817 12.6443614,13.1211627 C11.6648683,13.1607649 10.680095,13.1475642 9.69796177,13.1581247 C8.61814326,13.1686853 8.30396623,13.4459003 8.13235694,14.5177984 C8.00827021,15.2781596 7.88682363,16.0385208 7.74161576,16.798882 C7.31919288,19.0403634 6.87564884,21.2792048 6.46114638,23.5206862 C5.86183391,26.72846 5.28364258,29.938874 4.69753082,33.1492879 C4.31471008,35.2376411 3.93188934,37.3259942 3.54906859,39.4143474 C3.32465643,40.6393738 3.09232385,41.86176 2.86791169,43.0867864 C2.58013609,44.6550314 2.27651964,46.2232763 2.01514548,47.7968016 C1.8936989,48.5281212 2.36100422,49.0508695 3.10552456,49.1089527 C3.298255,49.1221534 3.49098545,49.1115928 3.68371589,49.1115928 C9.61611733,49.0561498 15.5485188,49.0059871 21.4782801,48.9505441 Z M21.5310829,50.8752084 C15.5115568,50.9280113 9.48939047,50.9200908 3.47250445,51.0679388 C1.36039,51.1207417 -0.495630565,49.409929 0.119522766,46.9625164 C0.486502651,45.5025173 0.697714095,44.002916 0.961728401,42.5191556 C1.29438643,40.6367336 1.67720717,38.7622321 2.02306591,36.8824502 C2.5194128,34.2079853 2.9972787,31.5308802 3.49362559,28.8564153 C4.01901406,26.0288221 4.56288353,23.2012289 5.09091214,20.3736357 C5.5054146,18.1506352 5.91199663,15.9249946 6.31329837,13.7019942 C6.55883168,12.3370402 7.78121791,11.2677823 9.15145215,11.244021 C10.2391911,11.22554 11.32693,11.2228999 12.414669,11.2123393 C13.2674352,11.2044189 13.2700753,11.2044189 13.2674352,10.3252512 C13.2674352,9.25599329 13.2621549,8.19201564 13.4337642,7.1227577 C13.9591527,3.8542606 15.7966922,1.60749886 18.8777392,0.50919935 C22.3416069,-0.7263876 25.7658724,0.329669622 28.0495961,3.21006569 C29.1030132,4.54069779 29.6759243,6.09574205 29.7023257,7.82239561 C29.7155264,8.6989231 29.726087,9.57809074 29.6970454,10.4546182 C29.6838447,10.9087228 29.8343328,11.077692 30.298998,11.0644913 C31.4395398,11.0275293 32.5853619,11.0829723 33.7206234,11.0116884 C35.3047093,10.911363 36.5138948,12.2235141 36.7488675,13.5277448 C37.1739305,15.9038735 37.625395,18.2720818 38.0636587,20.6482106 C38.6550508,23.8612647 39.2411625,27.079599 39.840475,30.2926531 C40.4741094,33.6957975 41.1209444,37.0963018 41.7624992,40.496806 C42.184922,42.7488481 42.6047048,44.99825 43.0271277,47.250292 C43.3333843,48.8871807 41.8575443,50.6560765 40.11769,50.700959 C38.8372207,50.737921 37.5541111,50.7326407 36.2736418,50.7432012 L21.5310829,50.8752084 Z" id="Fill-7" stroke="#DA272C" fill="#DA272C"></path>
                                <path d="M17.8243985,29.5526149 C17.9062842,28.8410566 17.9825226,27.5873587 17.7566311,26.1840076 C18.6065479,25.6164552 19.2362205,25.0347845 19.5750578,24.6903 C19.9506024,26.5369631 19.2333969,28.4033918 17.8243985,29.5526149 M16.1245648,30.4590046 C15.6643109,30.6001868 15.1899387,30.6707779 14.7155665,30.6764252 C14.6647409,30.6764252 14.616739,30.6764252 14.5659134,30.6736016 C14.1649559,30.2133476 13.3432755,29.1883648 12.7107793,27.8019556 C13.4872814,27.7793665 14.3513164,27.672068 15.2209988,27.4066455 C16.0878575,27.1412229 16.8643596,26.7515601 17.5250923,26.3336608 C17.7509838,27.8443103 17.6267434,29.1573047 17.5420341,29.7672118 C17.1184875,30.0636945 16.646939,30.3008805 16.1245648,30.4590046 M10.1102032,27.5817114 C10.5789281,27.6777153 11.4175503,27.8104266 12.4340622,27.8076029 C13.0129092,29.1036555 13.7583512,30.1060491 14.2157815,30.6566597 C12.3888839,30.4815938 10.7878777,29.2843687 10.1102032,27.5817114 M11.6095581,21.8864215 C11.5022597,22.8154004 11.4062558,24.6592399 11.9709846,26.5567286 C12.0726357,26.9040368 12.1940524,27.2372268 12.3267637,27.553475 C11.2566026,27.5478277 10.4010385,27.38688 10.0057283,27.299347 C9.99443377,27.2569923 9.9774919,27.2146377 9.96619733,27.1694594 C9.37887938,25.1929086 10.0932613,23.1260012 11.6095581,21.8864215 M13.3093918,20.9800318 C13.7696458,20.8388496 14.244018,20.7654348 14.7212138,20.7597875 C14.7692157,20.7597875 14.8172177,20.7626112 14.8680433,20.7626112 C15.3875938,21.3584001 16.6102316,22.905757 17.2201387,24.9557225 C17.3302608,25.3284435 17.4149701,25.7011645 17.479914,26.0654146 C16.8191813,26.4889612 16.0313846,26.8955659 15.147584,27.1638121 C14.2637835,27.4348819 13.3828065,27.5365331 12.6006572,27.5506513 C12.4566513,27.2146377 12.32394,26.8560349 12.2138179,26.4833139 C11.6067345,24.4389956 11.7818004,22.4624449 11.8919225,21.6746482 C12.3154691,21.3753419 12.7898413,21.1381558 13.3093918,20.9800318 M19.470583,24.269577 C19.4847012,24.3147553 19.4959958,24.35711 19.5072903,24.4022883 C19.2277496,24.6931236 18.598077,25.3058543 17.7086291,25.9101142 C17.6465089,25.5741005 17.5674469,25.229616 17.4629721,24.8823078 C16.8982433,22.9791717 15.813964,21.493935 15.2181751,20.7852003 C17.1890786,20.9687372 18.9002069,22.3438518 19.470583,24.269577 M20.1990831,24.0465091 C19.4847012,21.6407645 17.2342569,19.9776382 14.7212138,20.0002273 C14.1734269,20.0058746 13.6256399,20.0877603 13.0947949,20.2515316 C10.0706722,21.1748632 8.34260204,24.3768755 9.23487354,27.3897036 C9.94925546,29.7954483 12.2025234,31.4613982 14.7155665,31.4388091 C15.2633534,31.4331618 15.8111404,31.3484525 16.3419854,31.1846811 C19.3632845,30.2641732 21.0970019,27.0593373 20.1990831,24.0465091" id="Fill-9" stroke="#DA272C" stroke-width="0.6" fill="#D22317"></path>
                                <path d="M34.0337098,43.3534342 C34.0337098,43.8897048 33.596363,44.3322582 33.0574891,44.3374647 L22.5845931,44.4285786 C22.0483225,44.4337851 21.6109756,44.0016448 21.6109756,43.4653742 L21.6109756,38.2067985 C21.6109756,37.6705279 22.0483225,37.2279745 22.5845931,37.2253712 L33.0574891,37.131654 C33.596363,37.1264475 34.0337098,37.5585879 34.0337098,38.0974618 L34.0337098,43.3534342 Z M33.0574891,36.4313784 L22.5845931,36.5250956 C21.6604374,36.5329053 20.9080967,37.2904526 20.9080967,38.2146082 L20.9080967,43.4705807 C20.9080967,44.3921331 21.6604374,45.1392673 22.5845931,45.1314576 L27.7051962,45.084599 L27.7051962,45.706777 L26.0286998,45.7223965 C25.9662217,45.7223965 25.9141566,45.7770649 25.9141566,45.839543 C25.9141566,45.9046244 25.9662217,45.9566895 26.0286998,45.9566895 L29.6133824,45.9228472 C29.6784637,45.9228472 29.7305288,45.8707821 29.7305288,45.8057007 C29.7305288,45.7432226 29.6784637,45.6885542 29.6133824,45.6885542 L27.9394892,45.7041737 L27.9394892,45.0819957 L33.0574891,45.0351371 C33.9816447,45.0299306 34.7339855,44.2723833 34.7339855,43.3482277 L34.7339855,38.0922552 C34.7339855,37.1680996 33.9816447,36.4235686 33.0574891,36.4313784 Z" id="Fill-11" stroke="#DA272C" stroke-width="0.6" fill="#D22317"></path>
                                <path d="M29.115119,31.8064294 L29.115119,29.2428305 L30.1821305,29.2317447 C30.1821305,29.2317447 30.1821305,30.938963 30.1821305,31.7953436 L29.115119,31.8064294 Z M28.8656878,31.7870292 C28.3779112,31.6484563 27.0503827,30.7505038 26.7815512,27.5550125 C26.7815512,27.5550125 26.7427508,27.2612379 26.7427508,26.3023134 C26.7427508,25.3433888 26.7815512,25.1105863 26.7815512,25.1105863 C27.058697,21.812551 28.3945399,20.9949708 28.8656878,20.8065117 L28.8656878,23.4144539 C28.122937,23.5197693 28.0176216,24.4565222 27.9649639,24.9193557 C27.8845916,25.6898211 27.8845916,26.560059 27.9649639,27.3776391 C28.0591935,28.283906 28.1506516,29.1458295 28.8656878,29.2345162 L28.8656878,31.7870292 Z M29.115119,20.7566254 L30.1821305,20.7455396 L30.1821305,23.3922822 L29.115119,23.403368 L29.115119,20.7566254 Z M30.9276527,29.2234303 C30.9304242,28.8187974 30.5978492,28.4862224 30.1876734,28.4889939 L28.9987178,28.4973083 C28.8324303,28.5000797 28.7548295,27.7434716 28.7077147,27.2944954 C28.6328853,26.5295729 28.6328853,25.7119928 28.7077147,24.9941851 C28.7465151,24.631124 28.8213445,24.1516618 28.9959463,24.1488903 L30.1849019,24.1378045 C30.3844469,24.135033 30.5701346,24.0602036 30.711479,23.9188593 C30.8500519,23.7802864 30.9276527,23.5862843 30.9276527,23.3895108 L30.9276527,20.7372252 C30.9276527,20.3270494 30.5978492,19.9972459 30.1876734,20.0000173 C30.1876734,20.0000173 28.9654603,20.0111032 28.9460601,20.0111032 C28.8407447,20.0111032 26.4101758,20.38525 26.0332575,25.1189007 C26.0332575,25.1189007 26,25.4514757 26,26.3106277 C26,27.1642369 26.030486,27.5605554 26.030486,27.5605554 C26.3381179,31.3463673 28.122937,32.560266 28.9820891,32.5547231 L30.1904448,32.5436373 C30.6061636,32.5353229 30.9304242,32.2027479 30.9276527,31.7870292 L30.9276527,29.2234303 Z" id="Fill-13" stroke="#DA272C" stroke-width="0.6" fill="#D22317" transform="translate(28.463835, 26.277371) rotate(-29.000000) translate(-28.463835, -26.277371) "></path>
                                <path d="M12.8400705,45.3868995 L10.6627376,45.4075868 C10.130041,45.4127586 9.69560873,44.9809123 9.69560873,44.4482156 L9.69560873,44.3680525 L13.8097853,44.3344358 L13.8097853,44.4120129 C13.8097853,44.9447096 13.3753531,45.3817277 12.8400705,45.3868995 M10.6627376,36.7163565 L12.8400705,36.6982551 C13.3753531,36.6930833 13.8097853,37.1223437 13.8097853,37.6576263 L13.8097853,44.1017042 L9.69560873,44.1404928 L9.69560873,37.6912431 C9.69560873,37.1585464 10.130041,36.7189424 10.6627376,36.7163565 M12.8400705,36.0000605 L10.6627376,36.0207477 C9.74474095,36.0285054 9,36.7810041 9,37.6990008 L9,44.4559734 C9,45.3713841 9.74474095,46.1109532 10.6627376,46.1031955 L12.8400705,46.0850942 C13.7580672,46.0773365 14.505394,45.3248378 14.505394,44.4042552 L14.505394,37.6498686 C14.505394,36.7318719 13.7580672,35.9923028 12.8400705,36.0000605" id="Fill-15" stroke="#DA272C" stroke-width="0.6" fill="#D22317"></path>
                                <path d="M13.1185797,34.3752381 L13.8222271,34.3682483 C13.8804761,34.3682483 13.9270753,34.3216491 13.9270753,34.2634001 C13.9270753,34.2051512 13.8804761,34.158552 13.8222271,34.158552 L13.1185797,34.1655419 C13.0626607,34.1655419 13.0160615,34.214471 13.0160615,34.27039 C13.0160615,34.328639 13.0626607,34.3752381 13.1185797,34.3752381" id="Fill-17" fill="#D22317"></path>
                            </g>
                        </g>
                    </g>
                </g>
            </g>
        </g>
    </g>
</svg>