<?xml version="1.0" encoding="UTF-8"?>
<svg width="83px" height="83px" viewBox="0 0 83 83" version="1.1" xmlns="http://www.w3.org/2000/svg" xmlns:xlink="http://www.w3.org/1999/xlink">
    <!-- Generator: sketchtool 52.4 (67378) - http://www.bohemiancoding.com/sketch -->
    <title>ECD9964E-71D2-4362-A196-D1D119B6D43F</title>
    <desc>Created with sketchtool.</desc>
    <defs>
        <path d="M59.1181481,0.553580247 L13.6987654,0.959382716 C6.3262963,1.02506173 0.351851852,7.05345679 0.351851852,14.4235802 L0.351851852,61.4685185 C0.351851852,68.8362963 6.3262963,74.7567901 13.6987654,74.6958025 L60.741358,74.2735802 C68.1114815,74.2102469 74.0882716,68.1818519 74.0882716,60.8093827 L74.0882716,15.3923457 C74.0882716,7.17074074 67.4593827,0.553580247 59.2541975,0.553580247 C59.2096296,0.553580247 59.162716,0.553580247 59.1181481,0.553580247" id="path-1"></path>
        <filter x="-10.8%" y="-6.7%" width="121.7%" height="121.6%" filterUnits="objectBoundingBox" id="filter-2">
            <feMorphology radius="0.5" operator="dilate" in="SourceAlpha" result="shadowSpreadOuter1"></feMorphology>
            <feOffset dx="0" dy="3" in="shadowSpreadOuter1" result="shadowOffsetOuter1"></feOffset>
            <feGaussianBlur stdDeviation="2" in="shadowOffsetOuter1" result="shadowBlurOuter1"></feGaussianBlur>
            <feComposite in="shadowBlurOuter1" in2="SourceAlpha" operator="out" result="shadowBlurOuter1"></feComposite>
            <feColorMatrix values="0 0 0 0 0   0 0 0 0 0   0 0 0 0 0  0 0 0 0.11 0" type="matrix" in="shadowBlurOuter1"></feColorMatrix>
        </filter>
    </defs>
    <g id="Page-3-2019" stroke="none" stroke-width="1" fill="none" fill-rule="evenodd">
        <g id="revista_virtual_home02" transform="translate(-849.000000, -114.000000)">
            <g id="Group-8" transform="translate(402.000000, 114.000000)">
                <g id="Group-5">
                    <g id="Group-14" transform="translate(342.000000, 0.000000)">
                        <g id="Group-12-Copy-2" transform="translate(109.000000, 0.000000)">
                            <g id="Group-6" transform="translate(0.469136, 0.751790)">
                                <g id="Fill-4">
                                    <use fill="black" fill-opacity="1" filter="url(#filter-2)" xlink:href="#path-1"></use>
                                    <use stroke="#DEDEDE" stroke-width="1" fill="#FFFFFF" fill-rule="evenodd" xlink:href="#path-1"></use>
                                </g>
                            </g>
                            <g id="Group-11" transform="translate(15.543210, 14.480185)" fill="#DA272C">
                                <path d="M12.3809259,36.6298148 L13.0400617,37.0262346 C15.8384568,38.7104321 19.0614198,39.5830247 22.3570988,39.5548765 C32.2300617,39.4657407 40.2640123,31.3614198 40.2640123,21.4884568 C40.2640123,11.6131481 32.2300617,3.6495679 22.3570988,3.74104938 C12.4817901,3.82783951 4.45018519,11.9321605 4.45018519,21.8074691 C4.45018519,25.2462346 5.42833333,28.5770988 7.2767284,31.4435185 L7.72240741,32.1308025 L5.9795679,38.3351235 L12.3809259,36.6298148 Z M0.736975309,43.5096914 L3.76055556,32.7383333 C1.81598765,29.4496914 0.790925926,25.7012963 0.790925926,21.837963 C0.790925926,9.94771605 10.4668519,0.187345679 22.3570988,0.0817901235 C34.2473457,-0.0261111111 43.9232716,9.56302469 43.9232716,21.4532716 C43.9232716,33.3482099 34.2473457,43.1085802 22.3570988,43.2141358 C18.6509259,43.2446296 15.0221605,42.3298148 11.8132716,40.5564815 L0.736975309,43.5096914 Z" id="Fill-7"></path>
                                <path d="M16.2991481,11.6633457 L14.8987778,11.6000123 C14.4601358,11.5789012 14.0285309,11.7290247 13.6977901,12.0198889 C13.0175432,12.6156914 11.9338395,13.7650741 11.6007531,15.2522346 C11.1034691,17.4712469 11.8705062,20.1734691 13.8572963,22.863963 C15.8464321,25.5568025 19.5502593,29.8611235 26.0970494,31.6532222 C28.2081605,32.2326049 29.8689012,31.8150741 31.149642,30.982358 C32.1629753,30.3255679 32.8643333,29.2793951 33.115321,28.0995185 L33.3381605,27.0533457 C33.4085309,26.7202593 33.2419877,26.3848272 32.932358,26.2464321 L28.2034691,24.1095185 C27.8961852,23.9687778 27.5326049,24.0626049 27.3261852,24.3300123 L25.4684074,26.7554444 C25.3300123,26.9384074 25.0884074,27.0134691 24.8726049,26.9384074 C23.6012469,26.5021111 19.3414938,24.7569259 17.0051975,20.276679 C16.9019877,20.0819877 16.9277901,19.8427284 17.0732222,19.6761852 L18.8465556,17.6072963 C19.0295185,17.3961852 19.0740864,17.1006296 18.9638395,16.849642 L16.9277901,12.0972963 C16.8175432,11.843963 16.5735926,11.6750741 16.2991481,11.6633457" id="Fill-9"></path>
                            </g>
                        </g>
                    </g>
                </g>
            </g>
        </g>
    </g>
</svg>