<?xml version="1.0" encoding="UTF-8"?>
<svg width="303px" height="64px" viewBox="0 0 303 64" version="1.1" xmlns="http://www.w3.org/2000/svg" xmlns:xlink="http://www.w3.org/1999/xlink">
    <!-- Generator: sketchtool 52.4 (67378) - http://www.bohemiancoding.com/sketch -->
    <title>EE56925B-44F7-40B9-AAEC-6DAFEB1457C2</title>
    <desc>Created with sketchtool.</desc>
    <g id="Page-3-2019" stroke="none" stroke-width="1" fill="none" fill-rule="evenodd">
        <g id="revista_virtual_home02" transform="translate(-402.000000, -114.000000)">
            <g id="Group-8" transform="translate(402.000000, 114.000000)">
                <g id="Group-5">
                    <g id="Group-16-Copy">
                        <g id="Group-7">
                            <g id="Group-2" transform="translate(126.769231, 0.000000)" fill="#DA272C">
                                <polygon id="Fill-1" points="150.079427 29.3785777 170.066314 9.19376233 164.811509 3.98164794 144.828503 24.1625823"></polygon>
                                <polygon id="Fill-2" points="136.07153 0.0820704626 128.67056 0.151927543 128.67056 21.5980513 136.07153 21.5320751"></polygon>
                                <polygon id="Fill-3" points="153.745371 37.6364608 153.745371 45.0529542 175.637804 44.8511448 175.637804 37.4462943"></polygon>
                                <path d="M143.628514,33.2634075 C140.209398,29.8714582 136.068425,28.2259358 131.372477,28.2686263 C126.676529,28.3113167 122.613175,30.0266961 119.275559,33.4846216 C115.8448,36.9425471 114.179873,41.0990434 114.179873,45.8803725 C114.179873,50.6617015 115.8448,54.7910312 119.275559,58.1092425 C122.613175,61.5089538 126.676529,63.2243332 131.372477,63.1816427 C136.068425,63.1389523 140.209398,61.3537158 143.628514,57.8919094 C146.973892,54.5154838 148.6427,50.3551066 148.6427,45.5737775 C148.6427,40.7885675 146.973892,36.6669997 143.628514,33.2634075 M137.818733,52.1287002 C136.068425,53.9837938 133.92226,54.8686502 131.372477,54.8919359 C128.908074,54.9113406 126.754148,54.0652937 125.007721,52.2451287 C123.253532,50.4249636 122.294937,48.2787989 122.294937,45.8066344 C122.294937,43.183113 123.253532,41.0136625 125.007721,39.2478308 C126.754148,37.4004991 128.908074,36.5039999 131.372477,36.5660951 C133.92226,36.4574285 136.068425,37.3189991 137.892471,39.1352832 C139.572922,40.8700674 140.446136,43.0201131 140.527635,45.6436346 C140.446136,48.115799 139.572922,50.2774876 137.818733,52.1287002" id="Fill-4"></path>
                                <path d="M22.4000885,20.7147473 C16.43507,20.6875807 11.494622,22.8065788 7.35753048,27.1415987 C3.13893901,31.4067616 1.07427419,36.4442333 1.07427419,42.4247755 C1.07427419,48.319937 3.13893901,53.4893609 7.35753048,57.6730238 C11.494622,61.7790678 16.43507,63.8088041 22.4000885,63.7583518 C27.1775366,63.7156613 31.5591279,62.2370198 35.3741007,59.256451 C39.1192164,56.1943823 41.5874999,52.4259809 42.8565702,47.7921279 L34.1826494,47.8697469 C33.0688171,50.1129354 31.477628,51.9525051 29.4867012,53.4117419 C27.2590365,54.7894788 24.9498719,55.5268591 22.4000885,55.5501448 C18.7403537,55.5773114 15.6394755,54.2539079 13.089692,51.7196482 C10.4661706,49.1155315 9.18933837,46.0224152 9.26695735,42.3510375 C9.18933837,38.6913027 10.4661706,35.5632579 13.089692,32.9164507 C15.6394755,30.3395006 18.7403537,28.9578828 22.4000885,28.9268352 C24.9498719,28.9035495 27.2590365,29.5982394 29.4867012,31.0147857 C31.477628,32.3537131 33.0688171,34.2476162 34.1826494,36.4713999 L42.8565702,36.3937809 C41.5874999,31.7870946 39.1192164,27.9760027 35.3741007,25.065291 C31.5591279,22.0691985 27.1775366,20.5944379 22.4000885,20.7147473" id="Fill-6"></path>
                                <path d="M74.9388226,28.6963068 C69.3657799,28.6613783 65.4654263,30.2137579 63.2377616,33.1826838 C61.8056914,35.0261345 61.0915968,37.4323229 60.850978,40.459463 L69.129042,40.3896059 C69.28428,38.9536548 69.7655177,37.9911795 70.3243743,37.346942 C71.1975878,36.2175858 72.629658,35.6432054 74.7020847,35.7130625 C76.4523927,35.6082769 77.8029629,35.9187528 78.7576763,36.4698475 C79.7085088,36.9433233 80.1121275,37.8980367 80.1897465,39.2524879 C80.1897465,40.3624393 79.5493899,41.2511766 78.2803196,41.8216761 L71.9078015,42.9044608 C68.9660422,43.3352462 66.5831396,44.0687455 64.7474507,45.1282446 C61.6465725,46.9872191 60.1368834,49.9483831 60.2145024,54.1786174 C60.1368834,57.1164958 61.0915968,59.5071603 62.9971428,61.2458254 C64.6698317,62.6701337 66.9751154,63.4385616 69.7655177,63.4967758 C74.302347,63.3764664 77.8805819,62.2277055 80.4303653,59.9728742 L80.4303653,63.3997521 L88.7123103,63.329895 L88.7123103,38.9342501 C88.7123103,34.9446346 87.2685973,32.1736371 84.5674568,30.7609717 C81.7033165,29.2706873 78.5209384,28.5798784 74.9388226,28.6963068 Z M78.4394385,47.3908378 L80.0306276,46.5098624 L80.0306276,49.8552403 C80.0306276,52.7154997 79.2311521,54.7180693 77.7253439,55.8474255 C76.1302739,56.9767816 74.4575849,57.555043 72.548158,57.5666858 C71.3567067,57.5783287 70.4019933,57.2639718 69.6025178,56.64302 C68.8108042,55.9289254 68.4071855,54.896593 68.4071855,53.3830229 C68.4071855,51.7142149 69.0514231,50.5072398 70.4019933,49.6185025 C71.1975878,49.1333838 72.548158,48.7220033 74.302347,48.4658606 L78.4394385,47.3908378 Z" id="Fill-8"></path>
                                <polygon id="Fill-10" points="55.3559424 20.4228999 47.0778784 20.496638 47.0778784 63.6954804 55.3559424 63.6256233"></polygon>
                                <path d="M108.046422,29.5986275 C105.826519,30.4912457 103.835592,32.0281015 102.155141,34.3489089 L102.155141,30.1264365 L94.2768148,30.1186746 L94.2768148,63.2813831 L102.47726,63.2076451 L102.47726,47.3423259 C102.47726,44.6295426 102.799379,42.7201158 103.517354,41.5092597 C104.068449,40.2363085 105.104662,39.1923332 106.381495,38.2997149 C107.809684,37.3294777 109.323254,36.8365972 110.918324,36.8210734 L113.464226,36.9607876 L113.386607,28.5080808 L111.240443,28.6904854 L108.046422,29.5986275 Z" id="Fill-12"></path>
                            </g>
                            <path d="M39.7948403,62.137445 L31.4030715,62.137445 L31.4030715,37.0828835 L23.19242,53.3834416 L17.5174109,53.3834416 L9.24638701,37.0828835 L9.24638701,62.137445 L0.85461822,62.137445 L0.85461822,19.1522696 L9.12564214,19.1522696 L20.3549155,42.395658 L31.5238164,19.1522696 L39.7948403,19.1522696 L39.7948403,62.137445 Z M84.5911888,62.137445 L74.810854,62.137445 L63.7626979,42.5767753 L58.2084337,49.2177434 L58.2084337,62.137445 L49.8166649,62.137445 L49.8166649,19.1522696 L58.2084337,19.1522696 L58.2084337,37.8677252 L73.3619155,19.1522696 L83.5648574,19.1522696 L69.3169622,36.2376694 L84.5911888,62.137445 Z M117.614912,26.6384519 L106.385639,26.6384519 L106.385639,62.137445 L97.9938699,62.137445 L97.9938699,26.6384519 L86.7645966,26.6384519 L86.7645966,19.1522696 L117.614912,19.1522696 L117.614912,26.6384519 Z" id="MKT" fill="#000000"></path>
                        </g>
                    </g>
                </g>
            </g>
        </g>
    </g>
</svg>