<?xml version="1.0" encoding="UTF-8"?>
<svg width="90px" height="33px" viewBox="0 0 90 33" version="1.1" xmlns="http://www.w3.org/2000/svg" xmlns:xlink="http://www.w3.org/1999/xlink">
    <!-- Generator: sketchtool 52.4 (67378) - http://www.bohemiancoding.com/sketch -->
    <title>0F140F8F-CAAC-470C-AC8F-C92AA18B0EE9</title>
    <desc>Created with sketchtool.</desc>
    <g id="Page-1" stroke="none" stroke-width="1" fill="none" fill-rule="evenodd">
        <g id="revista_virtual_desktop_home" transform="translate(-153.000000, -12.000000)" fill="#FFFFFF" fill-rule="nonzero">
            <g id="header" transform="translate(103.000000, 12.000000)">
                <g id="header-rojo">
                    <g id="logo-claro" transform="translate(50.000000, 0.000000)">
                        <path d="M70.451462,26.5178571 C69.4994152,27.4607143 68.4283626,27.9321429 67.1192982,27.9321429 C65.8102339,27.9321429 64.7391813,27.4607143 63.7871345,26.5178571 C62.8350877,25.575 62.3590643,24.5142857 62.3590643,23.2178571 C62.3590643,21.9214286 62.8350877,20.7428571 63.7871345,19.9178571 C64.7391813,18.975 65.8102339,18.5035714 67.1192982,18.6214286 C68.4283626,18.6214286 69.4994152,18.975 70.451462,19.9178571 C71.2845029,20.8607143 71.7605263,21.9214286 71.7605263,23.2178571 C71.8795322,24.5142857 71.4035088,25.6928571 70.451462,26.5178571 M73.4266082,16.9714286 C71.6415205,15.2035714 69.4994152,14.3785714 67.1192982,14.3785714 C64.7391813,14.3785714 62.597076,15.2035714 60.9309942,16.9714286 C59.1459064,18.7392857 58.3128655,20.8607143 58.3128655,23.3357143 C58.3128655,25.8107143 59.1459064,27.9321429 60.9309942,29.5821429 C62.597076,31.35 64.7391813,32.175 67.1192982,32.175 C69.4994152,32.175 71.6415205,31.2321429 73.4266082,29.5821429 C75.0926901,27.9321429 76.0447368,25.8107143 76.0447368,23.3357143 C76.0447368,20.8607143 75.2116959,18.7392857 73.4266082,16.9714286" id="Shape"></path>
                        <path d="M10.948538,10.0178571 C7.85438596,10.0178571 5.35526316,11.0785714 3.21315789,13.2 C1.07105263,15.3214286 0,17.9142857 0,20.9785714 C0,24.0428571 1.07105263,26.6357143 3.21315789,28.7571429 C5.35526316,30.8785714 7.85438596,31.9392857 10.948538,31.9392857 C13.4476608,31.9392857 15.7087719,31.2321429 17.6128655,29.7 C19.5169591,28.1678571 20.8260234,26.2821429 21.4210526,23.925 L16.8988304,23.925 C16.3038012,25.1035714 15.4707602,26.0464286 14.5187135,26.7535714 C13.328655,27.4607143 12.1385965,27.8142857 10.8295322,27.8142857 C8.9254386,27.8142857 7.37836257,27.1071429 6.06929825,25.8107143 C4.76023392,24.5142857 4.04619883,22.8642857 4.04619883,20.9785714 C4.04619883,19.0928571 4.64122807,17.5607143 6.06929825,16.1464286 C7.37836257,14.85 8.9254386,14.1428571 10.8295322,14.1428571 C12.1385965,14.1428571 13.328655,14.4964286 14.5187135,15.2035714 C15.5897661,15.9107143 16.422807,16.8535714 16.8988304,18.0321429 L21.4210526,18.0321429 C20.8260234,15.675 19.5169591,13.6714286 17.6128655,12.2571429 C15.7087719,10.725 13.4476608,10.0178571 10.948538,10.0178571" id="Shape"></path>
                        <path d="M39.8669591,23.925 L40.7,23.4535714 L40.7,25.2214286 C40.7,26.6357143 40.3429825,27.6964286 39.5099415,28.2857143 C38.6769006,28.875 37.8438596,29.1107143 36.8918129,29.1107143 C36.2967836,29.1107143 35.8207602,28.9928571 35.3447368,28.6392857 C34.9877193,28.2857143 34.7497076,27.6964286 34.7497076,26.9892857 C34.7497076,26.1642857 35.1067251,25.575 35.8207602,25.1035714 C36.1777778,24.8678571 36.8918129,24.6321429 37.8438596,24.5142857 L39.8669591,23.925 Z M38.0818713,14.3785714 C35.225731,14.3785714 33.2026316,15.0857143 32.0125731,16.6178571 C31.298538,17.5607143 30.9415205,18.7392857 30.8225146,20.2714286 L35.1067251,20.2714286 C35.225731,19.5642857 35.4637427,19.0928571 35.7017544,18.7392857 C36.1777778,18.15 36.8918129,17.9142857 37.9628655,17.9142857 C38.9149123,17.9142857 39.5099415,18.0321429 40.1049708,18.2678571 C40.5809942,18.5035714 40.8190058,18.975 40.8190058,19.6821429 C40.8190058,20.2714286 40.4619883,20.7428571 39.8669591,20.9785714 L36.5347953,21.45 C34.9877193,21.6857143 33.7976608,22.0392857 32.845614,22.5107143 C31.298538,23.4535714 30.4654971,24.9857143 30.4654971,27.1071429 C30.4654971,28.6392857 30.9415205,29.8178571 31.8935673,30.7607143 C32.7266082,31.4678571 33.9166667,31.9392857 35.3447368,31.9392857 C37.7248538,31.9392857 39.5099415,31.35 40.8190058,30.1714286 L40.8190058,31.9392857 L45.2222222,31.9392857 L45.2222222,19.5642857 C45.2222222,17.5607143 44.5081871,16.1464286 43.080117,15.3214286 C41.5330409,14.6142857 39.8669591,14.2607143 38.0818713,14.3785714 Z" id="Shape"></path>
                        <rect id="Rectangle-path" x="23.6821637" y="10.0178571" width="4.28421053" height="22.0392857"></rect>
                        <path d="M55.0997076,14.9678571 C53.9096491,15.4392857 52.9576023,16.1464286 52.1245614,17.325 L52.1245614,15.2035714 L48.0783626,15.2035714 L48.0783626,32.175 L52.3625731,32.175 L52.3625731,24.0428571 C52.3625731,22.6285714 52.4815789,21.6857143 52.9576023,21.0964286 C53.195614,20.3892857 53.7906433,19.9178571 54.3856725,19.4464286 C55.0997076,18.975 55.9327485,18.7392857 56.7657895,18.7392857 L58.0748538,18.8571429 L58.0748538,14.4964286 L57.0038012,14.6142857 L55.0997076,14.9678571 Z" id="Shape"></path>
                        <polygon id="Rectangle-path" transform="translate(80.598377, 8.613778) rotate(-45.040515) translate(-80.598377, -8.613778) " points="73.3390877 6.72808118 87.8576655 6.72808118 87.8576655 10.4994745 73.3390877 10.4994745"></polygon>
                        <polygon id="Rectangle-path" points="65.8102339 0 69.6184211 0 69.6184211 10.9607143 65.8102339 10.9607143"></polygon>
                        <polygon id="Rectangle-path" points="78.6628655 19.2107143 89.9684211 19.2107143 89.9684211 22.9821429 78.6628655 22.9821429"></polygon>
                    </g>
                </g>
            </g>
        </g>
    </g>
</svg>