<?xml version="1.0" encoding="UTF-8"?>
<svg width="22px" height="24px" viewBox="0 0 22 24" version="1.1" xmlns="http://www.w3.org/2000/svg" xmlns:xlink="http://www.w3.org/1999/xlink">
    <!-- Generator: sketchtool 52.4 (67378) - http://www.bohemiancoding.com/sketch -->
    <title>4A21212D-D97D-4A16-80B9-18066735A507</title>
    <desc>Created with sketchtool.</desc>
    <g id="Page-1" stroke="none" stroke-width="1" fill="none" fill-rule="evenodd">
        <g id="revista_virtual_02-copy" transform="translate(-1207.000000, -22.000000)" fill="#FFFFFF">
            <g id="power-sign" transform="translate(1207.000000, 22.000000)">
                <path d="M8.69156217,4.80830129 L8.69156217,2.85718439 C3.74500202,3.81156213 0,8.12021632 0,13.2778431 C-0.000126231768,19.1334364 4.82655581,23.8973097 10.7591544,23.8973097 C16.6917109,23.8973097 21.5182667,19.1334364 21.5182667,13.2778431 C21.5182667,8.12021632 17.7731384,3.81156213 12.8267466,2.85714286 L12.8267466,4.80825976 C16.6998318,5.72949592 19.5869627,9.17613686 19.5869627,13.2778431 C19.5869627,18.082375 15.6269459,21.9911291 10.7591544,21.9911291 C5.89136285,21.9911291 1.93121982,18.082375 1.93121982,13.2778431 C1.93121982,9.17617839 4.81847698,5.72953745 8.69156217,4.80830129 Z" id="Path"></path>
                <path d="M11.8721003,10.4378576 L11.8721003,4.52097922 L11.8721003,2.64451729 L11.8721003,1.00183606 C11.8721003,0.448587555 11.417775,0 10.8570822,0 C10.2964306,0 9.84210526,0.448587555 9.84210526,1.00183606 L9.84210526,2.64455791 L9.84210526,4.52101985 L9.84210526,10.4378982 C9.84210526,10.9911467 10.2964306,11.4397343 10.8570822,11.4397343 C11.417775,11.4396937 11.8721003,10.9911061 11.8721003,10.4378576 Z" id="Path"></path>
            </g>
        </g>
    </g>
</svg>